<svg xmlns="http://www.w3.org/2000/svg" height="265" width="1248" viewBox="0 0 1248 265"><g fill-opacity=".03" fill-rule="evenodd"><path d="M0 19h1248v1H0zm0 49.505h1248v1H0zm0 49.505h1248v1H0zm0 49.5h1248v1H0zm0 49.51h1248v1H0z"/><path d="M50.317 199.69c-3.574-2.79-8.423-4.19-13.383-4.19-6.977 0-13.616 2.39-19.572 5.98C9.36 206.27 0 214.64 0 226.94 0 237.7 9.36 243 19.062 243c6.98 0 13.62-2.39 19.576-5.98 6.197-3.71 13.162-9.6 16.006-17.77H56V53h-5.683v146.69zm156.003-53c-3.58-2.79-8.43-4.19-13.39-4.19-6.97 0-13.61 2.39-19.57 5.98-8 4.79-17.36 13.16-17.36 25.46 0 10.76 9.36 16.06 19.06 16.06 6.98 0 13.62-2.39 19.58-5.98 6.2-3.71 13.16-9.6 16-17.77H212V0h-5.68v146.69zm156 53c-3.58-2.79-8.43-4.19-13.39-4.19-6.97 0-13.61 2.39-19.57 5.98-8 4.79-17.36 13.16-17.36 25.46 0 10.76 9.36 16.06 19.06 16.06 6.98 0 13.62-2.39 19.58-5.98 6.2-3.71 13.16-9.6 16-17.77H368V53h-5.68v146.69zm156-24c-3.58-2.79-8.43-4.19-13.39-4.19-6.97 0-13.61 2.39-19.57 5.98-8 4.79-17.36 13.16-17.36 25.46 0 10.76 9.36 16.06 19.06 16.06 6.98 0 13.62-2.39 19.58-5.98 6.2-3.71 13.16-9.6 16-17.77H524V29h-5.68v146.69zm156 46c-3.58-2.79-8.43-4.19-13.39-4.19-6.97 0-13.61 2.39-19.57 5.98-8 4.79-17.36 13.16-17.36 25.46 0 10.76 9.36 16.06 19.06 16.06 6.98 0 13.62-2.39 19.58-5.98 6.2-3.71 13.16-9.6 16-17.77H680V75h-5.68v146.69zm156-22c-3.58-2.79-8.43-4.19-13.39-4.19-6.97 0-13.61 2.39-19.57 5.98-8 4.79-17.36 13.16-17.36 25.46 0 10.76 9.36 16.06 19.06 16.06 6.98 0 13.62-2.39 19.58-5.98 6.2-3.71 13.16-9.6 16-17.77H836V53h-5.68v146.69zm156-26c-3.58-2.79-8.43-4.19-13.39-4.19-6.97 0-13.61 2.39-19.57 5.98-8 4.79-17.36 13.16-17.36 25.46 0 10.76 9.36 16.06 19.06 16.06 6.98 0 13.62-2.39 19.58-5.98 6.2-3.71 13.16-9.6 16-17.77H992V27h-5.68v146.69zm155.98-27c-3.6-2.79-8.4-4.19-13.4-4.19-6.9 0-13.6 2.39-19.5 5.98-8 4.79-17.4 13.16-17.4 25.46 0 10.76 9.4 16.06 19.1 16.06 6.9 0 13.6-2.39 19.5-5.98 6.2-3.71 13.2-9.6 16-17.77h1.4V0h-5.7v146.69z"/></g></svg>