<svg width="18" height="18" viewBox="0 0 18 18" xmlns="http://www.w3.org/2000/svg"><title>Slice 8</title><g transform="translate(2 3)" fill="#8f8e94" fill-rule="evenodd"><rect y="3" width="11" height="1" rx=".5"/><rect x="2" y="6" width="4" height="1" rx=".5"/><rect x="2" y="9" width="4" height="1" rx=".5"/><rect x="1" y="12" width="8" height="1" rx=".5"/><rect x="2" width="7" height="1" rx=".5"/><path d="M7.5 0c-.303 0-.5.255-.5.5s.197.5.5.5H13v11.044h-2.5c-.328 0-.5.15-.5.456 0 .307.172.5.5.5h2c.852 0 1.4-.243 1.5-.956V1c0-.5-.5-1-1-1H7.5z"/><path d="M11 6.604A.601.601 0 0 0 10.404 6H7.597A.602.602 0 0 0 7 6.604v2.791c0 .333.269.605.597.605h2.807A.602.602 0 0 0 11 9.395v-2.79zM8 7h2v2H8V7z"/></g></svg>